<svg id="svg776" xmlns="http://www.w3.org/2000/svg" viewBox="0 0 526.52 73.1"><defs><style>.cls-1{fill:#e8e8e7;}.cls-2{fill:#d3d3d3;}.cls-3{fill:#bebebe;}.cls-4{fill:#a9a9aa;}.cls-5{fill:#939495;}.cls-6{fill:#7e7f81;}.cls-7{fill:#696a6c;}</style></defs><title>sossArtboard 2</title><g id="title"><path id="path785" class="cls-1" d="M62,18A35.45,35.45,0,0,0,48.39,5.15,41.6,41.6,0,0,0,28.52.51H0V5.25H28.11a37.52,37.52,0,0,1,17.6,4,29.51,29.51,0,0,1,11.74,11,32.63,32.63,0,0,1,4.12,16.27,32.33,32.33,0,0,1-4.12,16.27A29.15,29.15,0,0,1,45.71,63.94a37.48,37.48,0,0,1-17.6,3.91H5.25V36.55H0v36H28.52A41.6,41.6,0,0,0,48.39,68,34.53,34.53,0,0,0,62,55.19a36.21,36.21,0,0,0,4.84-18.64A36,36,0,0,0,62,18Z"/><path id="path787" class="cls-2" d="M96.49,68.37a38.3,38.3,0,0,0,19.15,4.73,38.84,38.84,0,0,0,19.15-4.73,34.76,34.76,0,0,0,13.39-13.08,35.93,35.93,0,0,0,4.94-18.74,36.19,36.19,0,0,0-4.94-18.74A35.45,35.45,0,0,0,134.79,4.74,40,40,0,0,0,115.64,0,38.37,38.37,0,0,0,96.49,4.84,35.11,35.11,0,0,0,83,17.92a36,36,0,0,0-4.84,18.63A35.54,35.54,0,0,0,96.49,68.37ZM132,64.14a34.78,34.78,0,0,1-32.84,0A29,29,0,0,1,87.64,52.82a31.13,31.13,0,0,1-4.22-16.27,30.74,30.74,0,0,1,4.22-16.16A30,30,0,0,1,99.17,9,34.78,34.78,0,0,1,132,9a31.44,31.44,0,0,1,11.53,11.43,31.81,31.81,0,0,1,4.23,16.16,32.21,32.21,0,0,1-4.23,16.27A30.33,30.33,0,0,1,132,64.14Z"/><path id="path789" class="cls-3" d="M218.49,7Q210.77.52,197.17.51H171.33V5.25h25.84c7.62,0,13.49,1.75,17.61,5.15s6.08,8.24,6.08,14.41-2.06,11.12-6.08,14.42-10,5-17.61,5H171.33V72.59h5.25V49h20.59c9.07,0,16.17-2.06,21.32-6.38s7.72-10.2,7.72-17.82S223.64,11.33,218.49,7Z"/><path id="path791" class="cls-4" d="M290.57,33.67H243.93V38.3h46.64Zm0-33.16H243.93V5.25h46.64ZM243.93,67.85v4.74h46.64V67.85Z"/><path id="path793" class="cls-5" d="M350.89,47.36c5.36-1.54,9.58-4.22,12.46-8.13a23.5,23.5,0,0,0,4.43-14.42c0-7.51-2.57-13.48-7.72-17.81S347.81.51,338.74.51H312.9V5.25h25.84c7.62,0,13.49,1.75,17.61,5.15s6.08,8.24,6.08,14.41-2.06,11.12-6.08,14.52-10,5.05-17.61,5.05H312.9V72.59h5.25V49h20.59a43.22,43.22,0,0,0,7-.52l17.19,24.1h6Z"/><path id="path795" class="cls-6" d="M413.46.51h-5.25L375.06,72.59h5.66L410.79,6.28,441,72.59h5.67Z"/><path id="path797" class="cls-7" d="M521.68,18A35.45,35.45,0,0,0,508.09,5.15,41.6,41.6,0,0,0,488.22.51H459.7V5.25h28.11a37.52,37.52,0,0,1,17.6,4,29.51,29.51,0,0,1,11.74,11,32.63,32.63,0,0,1,4.12,16.27,32.33,32.33,0,0,1-4.12,16.27,29.15,29.15,0,0,1-11.74,11.12,37.48,37.48,0,0,1-17.6,3.91H465V36.55H459.7v36h28.52A41.6,41.6,0,0,0,508.09,68a34.53,34.53,0,0,0,13.59-12.76,36.21,36.21,0,0,0,4.84-18.64A36,36,0,0,0,521.68,18Z"/></g></svg>