<svg id="svg776" xmlns="http://www.w3.org/2000/svg" viewBox="0 0 100 100"><defs><style>.cls-1{fill:#696a6c;}</style></defs><title>doperad-dArtboard 3</title><path id="path797" class="cls-1" d="M85.43,27.67A42.75,42.75,0,0,0,69.05,12.16,50,50,0,0,0,45.11,6.57H10.74v5.71H44.61a45.3,45.3,0,0,1,21.22,4.84A35.54,35.54,0,0,1,80,30.4a39.25,39.25,0,0,1,5,19.6,38.92,38.92,0,0,1-5,19.6A35.1,35.1,0,0,1,65.83,83c-6.21,3.22-13.28,4.71-21.22,4.71H17.06V50H10.74V93.43H45.11a50,50,0,0,0,23.94-5.59A41.57,41.57,0,0,0,85.43,72.46,43.55,43.55,0,0,0,91.26,50a43.39,43.39,0,0,0-5.83-22.33Z"/></svg>